<svg xmlns="http://www.w3.org/2000/svg" viewBox="0 0 927 200" width="927" height="200" role="img" aria-label="Roble Media Lab"><title>Roble Media Lab</title><desc>Roble Media Lab logo for dark backgrounds</desc><rect width="200" height="200" rx="44" fill="#f8fafc"/><path d="M82 60V140C82 151.8 94.8 159.1 104.9 153L170.9 113C180.6 107.1 180.6 92.9 170.9 87L104.9 47C94.8 40.9 82 48.2 82 60Z" fill="#14b8a6"/><path d="M57 52V148" stroke="#0b1020" stroke-width="24" stroke-linecap="round"/><g fill="#f8fafc"><path d="M82 0V735.5H246V0ZM524.75 0 310.5 313.75H490.75L715 0ZM201.5 234V363H381.75Q418 363 444.25 377.5Q470.5 392 485.125 418.375Q499.75 444.75 499.75 479.5Q499.75 515 485.125 541.375Q470.5 567.75 444.25 582.375Q418 597 381.75 597H201.5V735.5H369Q460.25 735.5 527.0 708.125Q593.75 680.75 629.75 626.625Q665.75 572.5 665.75 491.25V475.25Q665.75 394 629.25 340.625Q592.75 287.25 526.5 260.625Q460.25 234 369 234Z" transform="translate(252.31 129.49) scale(0.08308 -0.08308)"/><path d="M340.25 -19.5Q268 -19.5 212.0 3.0Q156 25.5 117.25 64.625Q78.5 103.75 58.5 154.25Q38.5 204.75 38.5 261V283.5Q38.5 341.25 59.375 392.625Q80.25 444 119.5 483.125Q158.75 522.25 214.75 544.625Q270.75 567 340.25 567Q410.5 567 466.125 544.625Q521.75 522.25 561.0 483.125Q600.25 444 621.125 392.625Q642 341.25 642 283.5V261Q642 204.75 622.0 154.25Q602 103.75 563.25 64.625Q524.5 25.5 468.5 3.0Q412.5 -19.5 340.25 -19.5ZM340.25 116Q386.75 116 418.0 136.125Q449.25 156.25 465.375 191.875Q481.5 227.5 481.5 272.25Q481.5 318.75 464.875 354.375Q448.25 390 416.625 410.75Q385 431.5 340.25 431.5Q295.75 431.5 264.0 410.75Q232.25 390 215.625 354.375Q199 318.75 199 272.25Q199 227.5 215.125 191.875Q231.25 156.25 262.875 136.125Q294.5 116 340.25 116Z" transform="translate(310.05 129.49) scale(0.08308 -0.08308)"/><path d="M410 -18Q342.5 -18 291.75 10.25Q241 38.5 212.125 92.875Q183.25 147.25 181 225.25H199.5V0H72.5V730H233V359.25L194.5 311Q197.75 393.5 226.5 450.0Q255.25 506.5 305.0 535.25Q354.75 564 418.75 564Q475 564 520.5 543.25Q566 522.5 598.125 485.0Q630.25 447.5 647.5 396.875Q664.75 346.25 664.75 286.25V263.75Q664.75 203.75 647.375 152.625Q630 101.5 596.5 63.0Q563 24.5 516.0 3.25Q469 -18 410 -18ZM368.25 115.5Q408.75 115.5 439.375 135.875Q470 156.25 487.125 192.375Q504.25 228.5 504.25 275Q504.25 322.25 487.0 357.125Q469.75 392 439.5 411.25Q409.25 430.5 368.25 430.5Q331.5 430.5 299.875 413.875Q268.25 397.25 248.625 365.375Q229 333.5 229 288.5V251.5Q229 208.5 249.5 178.125Q270 147.75 302.0 131.625Q334 115.5 368.25 115.5Z" transform="translate(363.71 129.49) scale(0.08308 -0.08308)"/><path d="M80 0V730H240.5V0ZM15 612V730H240.5V612Z" transform="translate(419.21 129.49) scale(0.08308 -0.08308)"/><path d="M323.5 -19.5Q253.5 -19.5 200.25 4.5Q147 28.5 111.25 69.125Q75.5 109.75 57.0 160.25Q38.5 210.75 38.5 264V283.5Q38.5 338.5 57.0 389.375Q75.5 440.25 110.875 480.125Q146.25 520 198.375 543.5Q250.5 567 317.5 567Q406 567 466.625 527.625Q527.25 488.25 558.875 424.375Q590.5 360.5 590.5 286V231.75H106V323.25H494.25L441.5 280.5Q441.5 330 427.625 364.75Q413.75 399.5 386.375 418.0Q359 436.5 317.5 436.5Q276.25 436.5 247.0 417.625Q217.75 398.75 202.625 362.375Q187.5 326 187.5 273Q187.5 224.25 201.875 187.75Q216.25 151.25 246.25 131.125Q276.25 111 323.5 111Q367.75 111 396.0 127.75Q424.25 144.5 433.75 170.25H580.75Q569 114.5 534.125 71.5Q499.25 28.5 445.875 4.5Q392.5 -19.5 323.5 -19.5Z" transform="translate(442.47 129.49) scale(0.08308 -0.08308)"/></g><g fill="#53d8c8"><path d="M82 0V730H308L474.5 319.5H493.5L659 730H889V0H726.5V623L750 621L557.25 148H400.5L206.75 621L232 623V0Z" transform="translate(505.94 129.49) scale(0.08308 -0.08308)"/><path d="M323.5 -19.5Q253.5 -19.5 200.25 4.5Q147 28.5 111.25 69.125Q75.5 109.75 57.0 160.25Q38.5 210.75 38.5 264V283.5Q38.5 338.5 57.0 389.375Q75.5 440.25 110.875 480.125Q146.25 520 198.375 543.5Q250.5 567 317.5 567Q406 567 466.625 527.625Q527.25 488.25 558.875 424.375Q590.5 360.5 590.5 286V231.75H106V323.25H494.25L441.5 280.5Q441.5 330 427.625 364.75Q413.75 399.5 386.375 418.0Q359 436.5 317.5 436.5Q276.25 436.5 247.0 417.625Q217.75 398.75 202.625 362.375Q187.5 326 187.5 273Q187.5 224.25 201.875 187.75Q216.25 151.25 246.25 131.125Q276.25 111 323.5 111Q367.75 111 396.0 127.75Q424.25 144.5 433.75 170.25H580.75Q569 114.5 534.125 71.5Q499.25 28.5 445.875 4.5Q392.5 -19.5 323.5 -19.5Z" transform="translate(583.70 129.49) scale(0.08308 -0.08308)"/><path d="M298.5 -18Q240.75 -18 193.125 3.0Q145.5 24 110.75 61.625Q76 99.25 57.25 150.0Q38.5 200.75 38.5 260.25V282.75Q38.5 342 56.375 393.125Q74.25 444.25 107.625 482.625Q141 521 188.125 542.5Q235.25 564 293.25 564Q358.75 564 406.875 535.5Q455 507 482.125 451.5Q509.25 396 511.75 314.5L470.25 353.75V730H630.75V0H503.75V227.25H525.75Q523.25 149 493.75 94.0Q464.25 39 414.25 10.5Q364.25 -18 298.5 -18ZM338.5 115.5Q375.5 115.5 406.125 132.25Q436.75 149 455.5 181.125Q474.25 213.25 474.25 258V295Q474.25 338.75 455.0 368.625Q435.75 398.5 405.0 414.5Q374.25 430.5 338.25 430.5Q298 430.5 266.5 410.375Q235 390.25 217.0 354.625Q199 319 199 271.5Q199 224 217.125 189.0Q235.25 154 266.875 134.75Q298.5 115.5 338.5 115.5Z" transform="translate(632.63 129.49) scale(0.08308 -0.08308)"/><path d="M98.5 0V547.5H259V0ZM25.5 429.5V547.5H259V429.5ZM161.125 602Q116 602 94.5 625.375Q73 648.75 73 685.25Q73 721.75 94.58928571428572 745.125Q116.17857142857143 768.5 160.75 768.5Q206.25 768.5 227.375 745.125Q248.5 721.75 248.5 685.25Q248.5 648.75 227.375 625.375Q206.25 602 161.125 602Z" transform="translate(688.13 129.49) scale(0.08308 -0.08308)"/><path d="M403.75 0V161.5H377.25V337.5Q377.25 379.75 357.0 400.625Q336.75 421.5 293 421.5Q271 421.5 235.0 420.5Q199 419.5 160.75 417.75Q122.5 416 91.5 414V549Q115 551 145.875 552.875Q176.75 554.75 209.875 555.625Q243 556.5 271.5 556.5Q355.75 556.5 413.375 532.875Q471 509.25 500.875 460.75Q530.75 412.25 530.75 335.75V0ZM228.75 -14Q170.25 -14 125.625 6.875Q81 27.75 56.0 67.125Q31 106.5 31 161.5Q31 222.25 62.125 260.625Q93.25 299 149.0 317.375Q204.75 335.75 278.25 335.75H394.75V247.25H277.25Q235 247.25 212.25 226.375Q189.5 205.5 189.5 171.25Q189.5 137.75 212.25 117.125Q235 96.5 277.25 96.5Q303.75 96.5 325.375 106.0Q347 115.5 361.125 138.625Q375.25 161.75 377.25 202.5L415.25 163Q410.25 106 387.75 66.75Q365.25 27.5 325.75 6.75Q286.25 -14 228.75 -14Z" transform="translate(712.97 129.49) scale(0.08308 -0.08308)"/><path d="M82 0V730H246V0ZM226 0V143.5H531.5V0Z" transform="translate(773.95 129.49) scale(0.08308 -0.08308)"/><path d="M403.75 0V161.5H377.25V337.5Q377.25 379.75 357.0 400.625Q336.75 421.5 293 421.5Q271 421.5 235.0 420.5Q199 419.5 160.75 417.75Q122.5 416 91.5 414V549Q115 551 145.875 552.875Q176.75 554.75 209.875 555.625Q243 556.5 271.5 556.5Q355.75 556.5 413.375 532.875Q471 509.25 500.875 460.75Q530.75 412.25 530.75 335.75V0ZM228.75 -14Q170.25 -14 125.625 6.875Q81 27.75 56.0 67.125Q31 106.5 31 161.5Q31 222.25 62.125 260.625Q93.25 299 149.0 317.375Q204.75 335.75 278.25 335.75H394.75V247.25H277.25Q235 247.25 212.25 226.375Q189.5 205.5 189.5 171.25Q189.5 137.75 212.25 117.125Q235 96.5 277.25 96.5Q303.75 96.5 325.375 106.0Q347 115.5 361.125 138.625Q375.25 161.75 377.25 202.5L415.25 163Q410.25 106 387.75 66.75Q365.25 27.5 325.75 6.75Q286.25 -14 228.75 -14Z" transform="translate(817.40 129.49) scale(0.08308 -0.08308)"/><path d="M410 -18Q342.5 -18 291.75 10.25Q241 38.5 212.125 92.875Q183.25 147.25 181 225.25H199.5V0H72.5V730H233V359.25L194.5 311Q197.75 393.5 226.5 450.0Q255.25 506.5 305.0 535.25Q354.75 564 418.75 564Q475 564 520.5 543.25Q566 522.5 598.125 485.0Q630.25 447.5 647.5 396.875Q664.75 346.25 664.75 286.25V263.75Q664.75 203.75 647.375 152.625Q630 101.5 596.5 63.0Q563 24.5 516.0 3.25Q469 -18 410 -18ZM368.25 115.5Q408.75 115.5 439.375 135.875Q470 156.25 487.125 192.375Q504.25 228.5 504.25 275Q504.25 322.25 487.0 357.125Q469.75 392 439.5 411.25Q409.25 430.5 368.25 430.5Q331.5 430.5 299.875 413.875Q268.25 397.25 248.625 365.375Q229 333.5 229 288.5V251.5Q229 208.5 249.5 178.125Q270 147.75 302.0 131.625Q334 115.5 368.25 115.5Z" transform="translate(863.84 129.49) scale(0.08308 -0.08308)"/></g></svg>